<?xml version="1.0" encoding="utf-8"?>
<!-- Generator: Adobe Illustrator 16.0.0, SVG Export Plug-In . SVG Version: 6.00 Build 0)  -->
<!DOCTYPE svg PUBLIC "-//W3C//DTD SVG 1.1//EN" "http://www.w3.org/Graphics/SVG/1.1/DTD/svg11.dtd">
<svg version="1.1" id="Layer_1" xmlns="http://www.w3.org/2000/svg" xmlns:xlink="http://www.w3.org/1999/xlink" x="0px" y="0px"
	 width="864.737px" height="864.737px" viewBox="0 0 864.737 864.737" enable-background="new 0 0 864.737 864.737"
	 xml:space="preserve">
<path fill-rule="evenodd" clip-rule="evenodd" d="M462.474,369.368c0,13.872,0,27.384,0,41.04c-0.761,0.037-1.395,0.094-2.029,0.094
	c-33.779-0.002-67.559,0.032-101.337-0.043c-8.91-0.02-17.734-1.019-26.379-3.333c-0.816-0.219-1.803-0.307-2.587-0.062
	c-19.176,5.996-36.083,15.459-48.277,31.984c-10.428,14.132-16.125,30.018-17.66,47.491c-1.424,16.197,0.381,31.921,6.59,47.002
	c7.389,17.948,20.339,30.861,37.081,40.196c16.933,9.441,35.219,14.408,54.454,16.018c27.196,2.277,54.251,0.671,81.272-2.803
	c27.292-3.509,53.652-10.657,79.624-19.476c0.838-0.285,1.688-0.538,2.78-0.884c0.076,0.841,0.189,1.519,0.19,2.196
	c0.012,8.894-0.035,17.787,0.048,26.68c0.015,1.603-0.527,2.457-1.862,3.298c-22.763,14.33-47.552,23.879-73.339,31.019
	c-22.974,6.36-46.469,9.307-70.243,10.376c-17.55,0.789-35.073,0.565-52.566-1.011c-29.247-2.635-57.461-9.09-83.365-23.503
	c-32.139-17.883-52.65-44.614-60.412-80.743c-3.961-18.435-4.94-37.04-1.208-55.626c5.067-25.235,18.551-45.305,38.653-61.055
	c18.917-14.821,40.663-23.453,63.889-28.75c0.712-0.162,1.421-0.341,2.083-0.501c1.009-2.587-0.173-3.591-2.486-4.395
	c-16.466-5.718-32.274-12.814-46.312-23.33c-18.078-13.541-31.104-30.793-36.15-53.036c-5.552-24.474-3.788-48.403,9.099-70.548
	c8.56-14.71,20.677-26.205,34.918-35.4c20.413-13.181,42.978-20.929,66.628-25.758c32.82-6.701,65.963-8.239,99.337-6.026
	c33.188,2.2,65.958,6.949,98.08,15.766c0.545,0.15,1.08,0.338,1.512,0.474c0,31.215,0,62.326,0,93.692
	c-6.062,0-11.775-0.307-17.437,0.1c-4.243,0.306-6.37-1.047-8.264-4.982c-7.598-15.778-15.628-31.35-23.605-46.943
	c-0.681-1.331-1.962-2.631-3.29-3.312c-14.242-7.309-29.421-11.885-45.063-14.987c-13.162-2.61-26.464-3.995-39.889-3.301
	c-18.168,0.938-36.033,3.424-52.625,11.596c-17.925,8.829-30.772,22.296-37.335,41.332c-3.471,10.067-4.224,20.562-3.997,31.138
	c0.33,15.396,3.502,30.081,11.167,43.596c10.517,18.545,26.253,30.607,46.386,37.144c0.788,0.256,1.734,0.15,2.589,0.056
	c7.277-0.801,14.546-2.291,21.827-2.351c32.472-0.265,64.947-0.124,97.42-0.129C461.019,369.368,461.658,369.368,462.474,369.368z"
	/>
<text transform="matrix(1 0 0 1 566.502 680.6152)" font-family="'MyriadPro-Regular'" font-size="225.6282">1</text>
</svg>
