<?xml version="1.0" encoding="utf-8"?>
<!-- Generator: Adobe Illustrator 16.0.0, SVG Export Plug-In . SVG Version: 6.00 Build 0)  -->
<!DOCTYPE svg PUBLIC "-//W3C//DTD SVG 1.1//EN" "http://www.w3.org/Graphics/SVG/1.1/DTD/svg11.dtd">
<svg version="1.1" id="Layer_1" xmlns="http://www.w3.org/2000/svg" xmlns:xlink="http://www.w3.org/1999/xlink" x="0px" y="0px"
	 width="864.738px" height="864.738px" viewBox="0 0 864.738 864.738" enable-background="new 0 0 864.738 864.738"
	 xml:space="preserve">
<path d="M462.474,369.368c0,13.872,0,27.384,0,41.04c-0.762,0.037-1.395,0.094-2.029,0.094
	c-33.779-0.002-67.559,0.032-101.336-0.043c-8.91-0.02-17.734-1.02-26.38-3.333c-0.815-0.219-1.803-0.307-2.587-0.062
	c-19.176,5.996-36.083,15.459-48.276,31.984c-10.428,14.131-16.125,30.018-17.66,47.49c-1.424,16.197,0.381,31.922,6.59,47.002
	c7.389,17.949,20.339,30.861,37.081,40.197c16.933,9.439,35.219,14.406,54.454,16.018c27.196,2.277,54.251,0.67,81.271-2.803
	c27.293-3.51,53.652-10.658,79.625-19.477c0.838-0.285,1.688-0.539,2.779-0.885c0.076,0.842,0.189,1.52,0.191,2.197
	c0.012,8.893-0.035,17.787,0.047,26.68c0.016,1.604-0.527,2.457-1.861,3.297c-22.764,14.33-47.553,23.879-73.34,31.02
	c-22.973,6.359-46.468,9.307-70.243,10.377c-17.55,0.789-35.073,0.564-52.565-1.012c-29.247-2.635-57.461-9.09-83.365-23.504
	c-32.139-17.883-52.65-44.613-60.412-80.742c-3.961-18.436-4.94-37.039-1.208-55.625c5.067-25.236,18.551-45.307,38.653-61.056
	c18.917-14.82,40.663-23.453,63.889-28.75c0.712-0.162,1.421-0.341,2.083-0.501c1.009-2.587-0.173-3.591-2.486-4.395
	c-16.466-5.718-32.274-12.814-46.312-23.33c-18.078-13.541-31.104-30.793-36.15-53.036c-5.552-24.474-3.788-48.403,9.099-70.548
	c8.56-14.71,20.677-26.205,34.918-35.4c20.413-13.181,42.978-20.929,66.628-25.758c32.819-6.701,65.963-8.239,99.337-6.026
	c33.187,2.2,65.958,6.949,98.08,15.766c0.545,0.15,1.08,0.338,1.512,0.474c0,31.215,0,62.326,0,93.692
	c-6.062,0-11.775-0.307-17.438,0.1c-4.242,0.306-6.369-1.047-8.264-4.981c-7.598-15.778-15.627-31.351-23.604-46.943
	c-0.682-1.331-1.963-2.631-3.291-3.312c-14.242-7.309-29.42-11.885-45.063-14.987c-13.162-2.61-26.464-3.995-39.889-3.301
	c-18.168,0.938-36.033,3.424-52.625,11.596c-17.925,8.829-30.772,22.296-37.335,41.332c-3.471,10.067-4.224,20.562-3.997,31.138
	c0.33,15.396,3.502,30.081,11.167,43.596c10.517,18.545,26.253,30.607,46.386,37.144c0.788,0.256,1.734,0.15,2.589,0.056
	c7.277-0.801,14.546-2.291,21.827-2.351c32.472-0.265,64.947-0.124,97.42-0.129C461.019,369.368,461.658,369.368,462.474,369.368z"
	/>
<text transform="matrix(1 0 0 1 566.5015 680.6147)" font-family="'MyriadPro-Regular'" font-size="225.6282">2</text>
</svg>
